<svg width="260" height="160" viewBox="0 0 260 160" fill="none" xmlns="http://www.w3.org/2000/svg">
    <defs>
        <linearGradient id="ckbg" x1="0" y1="0" x2="260" y2="160" gradientUnits="userSpaceOnUse">
            <stop offset="0%" stop-color="#052E16"/>
            <stop offset="100%" stop-color="#064E3B"/>
        </linearGradient>
    </defs>
    <rect width="260" height="160" fill="url(#ckbg)"/>
    <!-- Left: student profile -->
    <rect width="86" height="160" fill="rgba(0,0,0,.22)"/>
    <!-- Progress ring track -->
    <circle cx="43" cy="48" r="28" stroke="rgba(34,197,94,.15)" stroke-width="5"/>
    <!-- Progress arc ~78% clockwise from top -->
    <path d="M43 20 A28 28 0 1 1 16.8 52" stroke="#22C55E" stroke-width="5" stroke-linecap="round"/>
    <!-- Avatar -->
    <circle cx="43" cy="48" r="18" fill="#166534"/>
    <circle cx="43" cy="43" r="7" fill="#22C55E" opacity=".65"/>
    <ellipse cx="43" cy="59" rx="12" ry="6" fill="#22C55E" opacity=".35"/>
    <!-- Progress badge -->
    <rect x="29" y="83" width="28" height="8" rx="3" fill="#22C55E"/>
    <!-- Name + role -->
    <rect x="12" y="99" width="62" height="6" rx="2" fill="rgba(255,255,255,.58)"/>
    <rect x="18" y="109" width="50" height="5" rx="2" fill="rgba(255,255,255,.28)"/>
    <!-- Achievement badges -->
    <circle cx="20" cy="130" r="8" fill="#D97706" opacity=".8"/>
    <circle cx="40" cy="130" r="8" fill="#7C3AED" opacity=".8"/>
    <circle cx="60" cy="130" r="8" fill="#2563EB" opacity=".8"/>
    <circle cx="20" cy="130" r="3" fill="rgba(255,255,255,.45)"/>
    <circle cx="40" cy="130" r="3" fill="rgba(255,255,255,.45)"/>
    <circle cx="60" cy="130" r="3" fill="rgba(255,255,255,.45)"/>
    <!-- Separator -->
    <line x1="86" y1="10" x2="86" y2="150" stroke="rgba(255,255,255,.07)" stroke-width="1"/>
    <!-- Top bar -->
    <rect x="94" y="10" width="158" height="12" rx="3" fill="rgba(0,0,0,.25)"/>
    <rect x="100" y="13" width="38" height="5" rx="2" fill="rgba(255,255,255,.6)"/>
    <rect x="220" y="13" width="26" height="5" rx="2" fill="#22C55E" opacity=".75"/>
    <!-- Course card 1 (HTML/CSS) -->
    <rect x="94" y="27" width="72" height="58" rx="5" fill="rgba(255,255,255,.06)" stroke="rgba(34,197,94,.18)" stroke-width="1"/>
    <rect x="94" y="27" width="72" height="26" rx="5" fill="rgba(234,88,12,.3)"/>
    <rect x="94" y="44" width="72" height="9" fill="rgba(234,88,12,.3)"/>
    <rect x="101" y="62" width="58" height="4" rx="2" fill="rgba(255,255,255,.12)"/>
    <rect x="101" y="62" width="42" height="4" rx="2" fill="#22C55E"/>
    <rect x="101" y="70" width="46" height="4" rx="2" fill="rgba(255,255,255,.38)"/>
    <!-- Course card 2 (Python) -->
    <rect x="174" y="27" width="72" height="58" rx="5" fill="rgba(255,255,255,.06)" stroke="rgba(34,197,94,.18)" stroke-width="1"/>
    <rect x="174" y="27" width="72" height="26" rx="5" fill="rgba(37,99,235,.35)"/>
    <rect x="174" y="44" width="72" height="9" fill="rgba(37,99,235,.35)"/>
    <rect x="181" y="62" width="58" height="4" rx="2" fill="rgba(255,255,255,.12)"/>
    <rect x="181" y="62" width="24" height="4" rx="2" fill="#3B82F6"/>
    <rect x="181" y="70" width="46" height="4" rx="2" fill="rgba(255,255,255,.38)"/>
    <!-- Course card 3 (Django) -->
    <rect x="94" y="92" width="72" height="56" rx="5" fill="rgba(255,255,255,.06)" stroke="rgba(34,197,94,.18)" stroke-width="1"/>
    <rect x="94" y="92" width="72" height="26" rx="5" fill="rgba(124,58,237,.35)"/>
    <rect x="94" y="109" width="72" height="9" fill="rgba(124,58,237,.35)"/>
    <rect x="101" y="127" width="58" height="4" rx="2" fill="rgba(255,255,255,.12)"/>
    <rect x="101" y="127" width="50" height="4" rx="2" fill="#A855F7"/>
    <rect x="101" y="135" width="46" height="4" rx="2" fill="rgba(255,255,255,.38)"/>
    <!-- Course card 4 (locked) -->
    <rect x="174" y="92" width="72" height="56" rx="5" fill="rgba(255,255,255,.03)" stroke="rgba(255,255,255,.1)" stroke-width="1" stroke-dasharray="3 2"/>
    <rect x="200" y="110" width="18" height="14" rx="3" fill="none" stroke="rgba(255,255,255,.28)" stroke-width="1.5"/>
    <path d="M203 110 v-4 a6 6 0 0 1 12 0 v4" stroke="rgba(255,255,255,.28)" stroke-width="1.5" fill="none"/>
    <circle cx="209" cy="117" r="2.5" fill="rgba(255,255,255,.3)"/>
    <rect x="184" y="136" width="52" height="5" rx="2" fill="rgba(255,255,255,.18)"/>
</svg>
