<svg width="260" height="160" viewBox="0 0 260 160" fill="none" xmlns="http://www.w3.org/2000/svg">
    <defs>
        <linearGradient id="kbg" x1="0" y1="0" x2="260" y2="160" gradientUnits="userSpaceOnUse">
            <stop offset="0%" stop-color="#0C1F4A"/>
            <stop offset="100%" stop-color="#163D7A"/>
        </linearGradient>
    </defs>
    <rect width="260" height="160" fill="url(#kbg)"/>
    <!-- Left panel -->
    <rect width="82" height="160" fill="rgba(0,0,0,.22)"/>
    <!-- Globe -->
    <circle cx="41" cy="58" r="26" stroke="rgba(255,255,255,.22)" stroke-width="1.5"/>
    <ellipse cx="41" cy="58" rx="13" ry="26" stroke="rgba(255,255,255,.1)" stroke-width="1"/>
    <line x1="15" y1="58" x2="67" y2="58" stroke="rgba(255,255,255,.1)" stroke-width="1"/>
    <line x1="17" y1="46" x2="65" y2="46" stroke="rgba(255,255,255,.06)" stroke-width="1"/>
    <line x1="17" y1="70" x2="65" y2="70" stroke="rgba(255,255,255,.06)" stroke-width="1"/>
    <!-- Signal waves -->
    <path d="M57 42 Q74 58 57 74" stroke="#60A5FA" stroke-width="1.5" stroke-linecap="round" opacity=".55"/>
    <path d="M63 34 Q84 58 63 82" stroke="#60A5FA" stroke-width="1" stroke-linecap="round" opacity=".2"/>
    <!-- Branding bar -->
    <rect x="11" y="96" width="60" height="9" rx="3" fill="rgba(255,255,255,.7)"/>
    <!-- Language dots: KG RU EN INT -->
    <circle cx="19" cy="116" r="5" fill="#DC2626"/>
    <circle cx="33" cy="116" r="5" fill="#2563EB" opacity=".85"/>
    <circle cx="47" cy="116" r="5" fill="#22C55E" opacity=".85"/>
    <circle cx="61" cy="116" r="5" fill="#F59E0B" opacity=".7"/>
    <!-- Wagtail pill -->
    <rect x="11" y="131" width="60" height="8" rx="3" fill="rgba(255,255,255,.09)"/>
    <!-- Separator -->
    <line x1="82" y1="10" x2="82" y2="150" stroke="rgba(255,255,255,.07)" stroke-width="1"/>
    <!-- Nav bar -->
    <rect x="90" y="10" width="162" height="15" rx="3" fill="rgba(0,0,0,.3)"/>
    <rect x="96" y="14" width="32" height="6" rx="2" fill="rgba(255,255,255,.65)"/>
    <rect x="206" y="14" width="18" height="6" rx="2" fill="rgba(255,255,255,.18)"/>
    <rect x="228" y="14" width="18" height="6" rx="2" fill="rgba(255,255,255,.18)"/>
    <!-- Breaking news ticker -->
    <rect x="90" y="29" width="162" height="11" fill="#DC2626"/>
    <rect x="95" y="33" width="22" height="4" rx="1" fill="rgba(255,255,255,.95)"/>
    <rect x="121" y="33" width="68" height="4" rx="1" fill="rgba(255,255,255,.5)"/>
    <!-- Main article -->
    <rect x="90" y="44" width="162" height="52" rx="3" fill="rgba(255,255,255,.04)"/>
    <rect x="97" y="52" width="140" height="9" rx="2" fill="rgba(255,255,255,.8)"/>
    <rect x="97" y="67" width="148" height="4" rx="2" fill="rgba(255,255,255,.27)"/>
    <rect x="97" y="75" width="120" height="4" rx="2" fill="rgba(255,255,255,.2)"/>
    <rect x="97" y="83" width="136" height="4" rx="2" fill="rgba(255,255,255,.18)"/>
    <!-- 3 article mini-cards -->
    <rect x="90" y="102" width="48" height="38" rx="3" fill="rgba(37,99,235,.28)"/>
    <rect x="97" y="124" width="34" height="4" rx="2" fill="rgba(255,255,255,.55)"/>
    <rect x="97" y="131" width="22" height="3" rx="1" fill="rgba(255,255,255,.25)"/>
    <rect x="146" y="102" width="48" height="38" rx="3" fill="rgba(220,38,38,.25)"/>
    <rect x="153" y="124" width="34" height="4" rx="2" fill="rgba(255,255,255,.55)"/>
    <rect x="153" y="131" width="22" height="3" rx="1" fill="rgba(255,255,255,.25)"/>
    <rect x="202" y="102" width="50" height="38" rx="3" fill="rgba(34,197,94,.2)"/>
    <rect x="209" y="124" width="34" height="4" rx="2" fill="rgba(255,255,255,.55)"/>
    <rect x="209" y="131" width="22" height="3" rx="1" fill="rgba(255,255,255,.25)"/>
    <!-- Tech strip -->
    <rect x="90" y="146" width="50" height="8" rx="2" fill="rgba(255,255,255,.08)"/>
    <rect x="146" y="146" width="50" height="8" rx="2" fill="rgba(255,255,255,.08)"/>
    <rect x="202" y="146" width="50" height="8" rx="2" fill="rgba(255,255,255,.08)"/>
</svg>
