<svg width="260" height="160" viewBox="0 0 260 160" fill="none" xmlns="http://www.w3.org/2000/svg">
    <defs>
        <linearGradient id="wcbg" x1="0" y1="0" x2="260" y2="160" gradientUnits="userSpaceOnUse">
            <stop offset="0%" stop-color="#1A0533"/>
            <stop offset="100%" stop-color="#2D1065"/>
        </linearGradient>
    </defs>
    <rect width="260" height="160" fill="url(#wcbg)"/>
    <!-- Top brand bar -->
    <rect width="260" height="24" fill="rgba(0,0,0,.28)"/>
    <!-- Logo block -->
    <rect x="12" y="8" width="26" height="9" rx="3" fill="#7C3AED" opacity=".9"/>
    <!-- Project name label -->
    <rect x="44" y="8" width="58" height="9" rx="3" fill="rgba(255,255,255,.65)"/>
    <!-- Status pill -->
    <rect x="180" y="8" width="68" height="9" rx="3" fill="rgba(124,58,237,.45)"/>
    <!-- Terminal window -->
    <rect x="12" y="31" width="236" height="98" rx="6" fill="rgba(0,0,0,.45)" stroke="rgba(124,58,237,.25)" stroke-width="1"/>
    <!-- Terminal header -->
    <rect x="12" y="31" width="236" height="18" rx="6" fill="rgba(0,0,0,.5)"/>
    <rect x="12" y="41" width="236" height="8" fill="rgba(0,0,0,.5)"/>
    <circle cx="24" cy="40" r="4" fill="#FC5C5C" opacity=".7"/>
    <circle cx="36" cy="40" r="4" fill="#FDBC40" opacity=".7"/>
    <circle cx="48" cy="40" r="4" fill="#35CD4B" opacity=".7"/>
    <!-- URL bar -->
    <rect x="68" y="35" width="120" height="10" rx="3" fill="rgba(255,255,255,.08)"/>
    <rect x="75" y="37" width="106" height="5" rx="1" fill="rgba(255,255,255,.28)"/>
    <!-- GET line -->
    <rect x="22" y="57" width="24" height="7" rx="2" fill="#22C55E" opacity=".85"/>
    <rect x="50" y="57" width="106" height="7" rx="2" fill="rgba(255,255,255,.5)"/>
    <!-- 200 OK badge -->
    <rect x="172" y="57" width="36" height="7" rx="2" fill="rgba(34,197,94,.28)"/>
    <rect x="212" y="57" width="22" height="7" rx="2" fill="rgba(255,255,255,.12)"/>
    <!-- JSON response lines -->
    <rect x="22" y="72" width="8" height="5" rx="1" fill="rgba(255,255,255,.45)"/>
    <rect x="34" y="72" width="52" height="5" rx="1" fill="#C792EA" opacity=".8"/>
    <rect x="90" y="72" width="5" height="5" rx="1" fill="rgba(255,255,255,.3)"/>
    <rect x="99" y="72" width="90" height="5" rx="1" fill="#C3E88D" opacity=".8"/>
    <rect x="34" y="82" width="42" height="5" rx="1" fill="#C792EA" opacity=".8"/>
    <rect x="80" y="82" width="5" height="5" rx="1" fill="rgba(255,255,255,.3)"/>
    <rect x="89" y="82" width="36" height="5" rx="1" fill="#F78C6C" opacity=".8"/>
    <rect x="34" y="92" width="58" height="5" rx="1" fill="#C792EA" opacity=".8"/>
    <rect x="96" y="92" width="5" height="5" rx="1" fill="rgba(255,255,255,.3)"/>
    <rect x="105" y="92" width="100" height="5" rx="1" fill="#C3E88D" opacity=".8"/>
    <rect x="34" y="102" width="44" height="5" rx="1" fill="#C792EA" opacity=".8"/>
    <rect x="82" y="102" width="5" height="5" rx="1" fill="rgba(255,255,255,.3)"/>
    <rect x="91" y="102" width="30" height="5" rx="1" fill="#82AAFF" opacity=".8"/>
    <rect x="22" y="112" width="8" height="5" rx="1" fill="rgba(255,255,255,.3)"/>
    <rect x="34" y="112" width="28" height="5" rx="1" fill="rgba(255,255,255,.15)"/>
    <!-- Bottom tech strip -->
    <rect x="12" y="136" width="56" height="14" rx="4" fill="rgba(124,58,237,.28)" stroke="rgba(124,58,237,.35)" stroke-width="1"/>
    <rect x="74" y="136" width="56" height="14" rx="4" fill="rgba(37,99,235,.22)" stroke="rgba(37,99,235,.35)" stroke-width="1"/>
    <rect x="136" y="136" width="60" height="14" rx="4" fill="rgba(34,197,94,.18)" stroke="rgba(34,197,94,.3)" stroke-width="1"/>
    <rect x="202" y="136" width="46" height="14" rx="4" fill="rgba(255,255,255,.07)" stroke="rgba(255,255,255,.14)" stroke-width="1"/>
</svg>
