<svg width="256" height="295" viewBox="0 0 256 295" xmlns="http://www.w3.org/2000/svg" preserveAspectRatio="xMidYMid">
    <defs>
        <filter x="-50%" y="-50%" width="200%" height="200%" filterUnits="objectBoundingBox" id="filter-1">
            <feOffset dx="0" dy="0" in="SourceAlpha" result="shadowOffsetOuter1"/>
            <feGaussianBlur stdDeviation="6.5" in="shadowOffsetOuter1" result="shadowBlurOuter1"/>
        </filter>
        <linearGradient x1="48.5477412%" y1="115.276174%" x2="51.0473804%" y2="41.3637237%" id="lg2">
            <stop stop-color="#FFEED7" offset="0%"/>
            <stop stop-color="#BDBFC2" offset="100%"/>
        </linearGradient>
        <linearGradient x1="54.4065463%" y1="2.40410545%" x2="46.1753957%" y2="90.5422349%" id="lg3">
            <stop stop-color="#FFFFFF" stop-opacity="0.8" offset="0%"/>
            <stop stop-color="#FFFFFF" stop-opacity="0" offset="100%"/>
        </linearGradient>
        <linearGradient x1="51.859653%" y1="88.2477484%" x2="47.9469396%" y2="9.74782136%" id="lg4">
            <stop stop-color="#FFEED7" offset="0%"/>
            <stop stop-color="#BDBFC2" offset="100%"/>
        </linearGradient>
        <linearGradient x1="49.9251097%" y1="85.4900173%" x2="49.9236843%" y2="13.8109272%" id="lg5">
            <stop stop-color="#FFEED7" offset="0%"/>
            <stop stop-color="#BDBFC2" offset="100%"/>
        </linearGradient>
        <linearGradient x1="53.9014071%" y1="3.10177585%" x2="45.9555354%" y2="93.8949571%" id="lg6">
            <stop stop-color="#FFFFFF" stop-opacity="0.65" offset="0%"/>
            <stop stop-color="#FFFFFF" stop-opacity="0" offset="100%"/>
        </linearGradient>
        <linearGradient x1="45.5928761%" y1="5.47459052%" x2="54.811359%" y2="93.5235162%" id="lg7">
            <stop stop-color="#FFFFFF" stop-opacity="0.65" offset="0%"/>
            <stop stop-color="#FFFFFF" stop-opacity="0" offset="100%"/>
        </linearGradient>
        <linearGradient x1="49.9844987%" y1="89.8452442%" x2="49.9844987%" y2="40.6316864%" id="lg8">
            <stop stop-color="#FFEED7" offset="0%"/>
            <stop stop-color="#BDBFC2" offset="100%"/>
        </linearGradient>
        <linearGradient x1="53.5047131%" y1="99.97524%" x2="42.7455968%" y2="23.5451715%" id="lg9">
            <stop stop-color="#FFEED7" offset="0%"/>
            <stop stop-color="#BDBFC2" offset="100%"/>
        </linearGradient>
        <linearGradient x1="49.8413363%" y1="13.2289558%" x2="50.2412612%" y2="94.6729694%" id="lg10">
            <stop stop-color="#FFFFFF" stop-opacity="0.8" offset="0%"/>
            <stop stop-color="#FFFFFF" stop-opacity="0" offset="100%"/>
        </linearGradient>
        <linearGradient x1="49.9272298%" y1="37.3270337%" x2="50.7270446%" y2="92.7824735%" id="lg11">
            <stop stop-color="#FFFFFF" stop-opacity="0.65" offset="0%"/>
            <stop stop-color="#FFFFFF" stop-opacity="0" offset="100%"/>
        </linearGradient>
        <linearGradient x1="49.8755597%" y1="2.29900584%" x2="49.8755597%" y2="81.203617%" id="lg12">
            <stop stop-color="#FFFFFF" stop-opacity="0.65" offset="0%"/>
            <stop stop-color="#FFFFFF" stop-opacity="0" offset="100%"/>
        </linearGradient>
        <linearGradient x1="49.8334391%" y1="2.27189065%" x2="49.8240398%" y2="71.7989617%" id="lg13">
            <stop stop-color="#FFFFFF" stop-opacity="0.65" offset="0%"/>
            <stop stop-color="#FFFFFF" stop-opacity="0" offset="100%"/>
        </linearGradient>
        <linearGradient x1="53.4670683%" y1="48.9213861%" x2="38.9488708%" y2="98.0999776%" id="lg14">
            <stop stop-color="#FFA63F" offset="0%"/>
            <stop stop-color="#FFFF00" offset="100%"/>
        </linearGradient>
        <linearGradient x1="52.3731508%" y1="143.008909%" x2="47.57909%" y2="-64.6215389%" id="lg15">
            <stop stop-color="#FFEED7" offset="0%"/>
            <stop stop-color="#BDBFC2" offset="100%"/>
        </linearGradient>
        <linearGradient x1="30.580815%" y1="34.0241079%" x2="65.8867024%" y2="89.175349%" id="lg16">
            <stop stop-color="#FFA63F" offset="0%"/>
            <stop stop-color="#FFFF00" offset="100%"/>
        </linearGradient>
        <linearGradient x1="59.5715091%" y1="-17.2155207%" x2="48.3608522%" y2="66.1184465%" id="lg17">
            <stop stop-color="#FFFFFF" stop-opacity="0.65" offset="0%"/>
            <stop stop-color="#FFFFFF" stop-opacity="0" offset="100%"/>
        </linearGradient>
        <linearGradient x1="47.7689553%" y1="1.56481301%" x2="51.3733028%" y2="104.312856%" id="lg18">
            <stop stop-color="#FFFFFF" stop-opacity="0.65" offset="0%"/>
            <stop stop-color="#FFFFFF" stop-opacity="0" offset="100%"/>
        </linearGradient>
        <linearGradient x1="43.5495626%" y1="4.5334861%" x2="57.1143288%" y2="92.8267174%" id="lg19">
            <stop stop-color="#FFFFFF" stop-opacity="0.65" offset="0%"/>
            <stop stop-color="#FFFFFF" stop-opacity="0" offset="100%"/>
        </linearGradient>
        <linearGradient x1="49.7328042%" y1="17.6085216%" x2="50.5582487%" y2="99.3854667%" id="lg20">
            <stop stop-color="#FFA63F" offset="0%"/>
            <stop stop-color="#FFFF00" offset="100%"/>
        </linearGradient>
        <linearGradient x1="50.1697217%" y1="2.89048531%" x2="49.6802359%" y2="94.1704279%" id="lg21">
            <stop stop-color="#FFFFFF" stop-opacity="0.65" offset="0%"/>
            <stop stop-color="#FFFFFF" stop-opacity="0" offset="100%"/>
        </linearGradient>
    </defs>
    <g fill="none" transform="translate(10,0)">
        <path d="M235.125,249.359C235.125,266.714 182.508,280.856 117.585,280.856C52.662,280.856 0.044,266.806 0.044,249.359C0.044,232.003 52.662,217.861 117.585,217.861C182.508,217.861 235.034,232.003 235.125,249.359Z" fill="#000" fill-opacity="0.2" filter="url(#filter-1)"/>
        <path d="M53.213,215.474C41.826,199.128 39.622,145.868 66.160,113.085C79.292,97.382 82.690,86.454 83.700,71.670C84.434,54.865 71.854,4.819 119.237,1.054C167.264,-2.803 164.601,44.580 164.325,69.650C164.142,90.770 179.844,102.800 190.680,119.329C210.607,149.633 208.954,201.791 186.915,230.075C158.999,265.429 135.124,250.093 119.237,251.379C89.485,253.124 88.475,268.918 53.213,215.474Z" fill="#000000"/>
        <path d="M169.101,122.451C177.365,130.073 198.761,164.142 164.876,185.446C152.939,192.884 175.529,221.167 186.364,207.485C205.557,182.875 193.343,143.572 181.773,129.522C174.059,119.605 162.122,115.748 169.101,122.451Z" fill="url(#lg2)"/>
        <path d="M166.805,117.860C180.395,128.879 205.097,167.447 169.009,192.608C157.163,200.414 179.477,225.116 192.058,212.535C235.676,168.641 190.956,118.227 175.529,100.871C161.754,85.720 149.541,104.361 166.805,117.860Z" stroke="#000000" stroke-width="0.977" fill="#000000"/>
        <path d="M147.245,25.021C146.786,37.601 132.920,48.529 116.299,49.539C99.678,50.549 86.638,40.999 87.097,28.419C87.557,15.838 101.423,4.910 118.044,3.900C134.665,2.982 147.704,12.440 147.245,25.021Z" fill="url(#lg3)"/>
        <path d="M107.483,54.957C107.943,63.130 104.086,70.017 98.760,70.292C93.434,70.568 88.750,64.232 88.291,56.059C87.832,47.886 91.689,40.999 97.015,40.724C102.341,40.448 107.024,46.784 107.483,54.957Z" fill="url(#lg4)"/>
        <path d="M117.125,55.600C117.309,65.058 123.462,72.588 130.808,72.405C138.154,72.221 143.939,64.415 143.756,54.865C143.572,45.407 137.420,37.877 130.073,38.061C122.727,38.244 116.850,46.142 117.125,55.600Z" fill="url(#lg5)"/>
        <path d="M123.186,57.712C123.094,62.946 125.666,67.170 129.063,67.170C132.369,67.170 135.216,62.946 135.308,57.804C135.399,52.570 132.828,48.345 129.430,48.345C126.033,48.345 123.278,52.570 123.186,57.712Z" fill="#000000"/>
        <path d="M101.974,57.804C102.433,62.120 100.780,65.793 98.392,66.160C96.005,66.436 93.709,63.222 93.250,58.906C92.791,54.590 94.444,50.917 96.831,50.549C99.219,50.274 101.515,53.488 101.974,57.804Z" fill="#000000"/>
        <path d="M124.564,54.773C124.288,57.712 125.666,60.099 127.594,60.283C129.522,60.467 131.359,58.171 131.634,55.324C131.910,52.386 130.532,49.998 128.604,49.815C126.676,49.631 124.839,51.927 124.564,54.773Z" fill="url(#lg6)"/>
        <path d="M99.953,55.508C100.229,57.896 99.219,60.008 97.750,60.191C96.280,60.375 94.903,58.538 94.627,56.059C94.352,53.671 95.362,51.559 96.831,51.376C98.301,51.192 99.678,53.120 99.953,55.508Z" fill="url(#lg7)"/>
        <path d="M71.027,145.684C77.547,130.900 91.413,104.912 91.689,84.801C91.689,68.823 139.532,64.966 143.388,80.945C147.245,96.923 156.979,120.798 163.223,132.369C169.468,143.847 187.558,180.487 168.274,212.443C150.918,240.727 98.301,263.133 70.201,208.587C60.651,189.670 62.395,166.254 71.027,145.684Z" fill="url(#lg8)"/>
        <path d="M65.150,134.664C59.549,145.225 47.978,172.957 76.262,188.109C106.657,204.271 106.565,237.421 70.017,221.626C36.592,207.393 51.376,149.724 60.743,135.950C66.803,126.308 75.986,114.462 65.150,134.664Z" fill="url(#lg9)"/>
        <path d="M69.925,122.727C61.018,137.236 39.714,171.396 68.273,189.211C106.657,212.811 95.821,236.319 60.743,215.106C11.339,185.538 54.774,125.849 74.517,103.075C97.107,77.547 78.833,107.759 69.925,122.727Z" stroke="#000000" stroke-width="1.25" fill="#000000"/>
        <path d="M156.428,151.285C156.428,167.447 140.909,188.384 114.279,188.201C86.822,188.384 75.160,167.447 75.160,151.285C75.160,135.124 93.342,121.992 115.748,121.992C138.246,122.084 156.428,135.124 156.428,151.285Z" fill="url(#lg10)"/>
        <path d="M141.919,100.504C141.644,117.217 130.716,121.166 116.942,121.166C103.167,121.166 93.158,118.686 91.964,100.504C91.964,89.117 103.167,82.506 116.942,82.506C130.716,82.414 141.919,89.026 141.919,100.504Z" fill="url(#lg11)"/>
        <path d="M58.630,126.216C67.630,112.534 86.638,91.505 62.212,129.155C42.377,160.193 54.866,180.120 61.294,185.629C79.843,202.159 79.108,213.270 64.508,204.546C33.194,185.905 39.714,154.499 58.630,126.216Z" fill="url(#lg12)"/>
        <path d="M188.936,131.818C181.130,115.748 156.336,74.976 190.129,122.359C220.892,165.243 199.312,195.088 195.455,198.026C191.599,200.965 178.651,206.934 182.416,196.557C186.273,186.180 205.373,166.529 188.936,131.818Z" fill="url(#lg13)"/>
        <path d="M51.835,258.542C31.266,247.614 1.421,260.654 12.257,231.085C14.461,224.381 9.043,214.280 12.532,207.760C16.665,199.771 25.572,201.516 30.898,196.190C36.132,190.680 39.438,181.130 49.264,182.599C58.998,184.068 65.518,196.006 72.313,210.699C77.364,221.167 95.178,235.952 93.985,247.706C92.515,265.704 72.037,269.102 51.835,258.542Z" stroke="#E68C3F" stroke-width="6.25" fill="url(#lg14)"/>
        <path d="M201.608,189.119C198.486,194.996 185.446,204.454 176.722,201.975C167.907,199.587 163.866,186.180 165.611,175.987C167.264,164.601 176.722,163.958 188.660,169.651C201.516,175.987 205.373,181.313 201.608,189.119Z" fill="url(#lg15)"/>
        <path d="M194.445,253.491C209.505,235.217 243.023,238.982 220.433,213.913C215.658,208.495 217.127,196.924 211.250,191.966C204.363,185.905 196.741,190.864 189.762,187.742C182.783,184.344 175.437,177.824 166.897,182.415C158.357,187.099 157.438,199.220 156.612,215.198C155.877,226.677 145.409,245.869 151.010,256.429C159.091,272.775 180.120,270.571 194.445,253.491Z" stroke="#E68C3F" stroke-width="6.25" fill="url(#lg16)"/>
        <path d="M187.925,229.064C211.250,194.629 193.894,194.904 188.017,192.241C182.140,189.486 175.988,184.068 169.101,187.833C162.213,191.690 161.846,201.608 161.662,214.647C161.387,224.014 153.581,239.717 158.265,248.440C163.958,258.633 177.732,243.849 187.925,229.064Z" fill="url(#lg17)"/>
        <path d="M47.060,234.023C12.165,211.433 28.511,203.720 33.745,200.138C40.081,195.547 40.173,186.731 47.978,187.558C55.784,188.384 60.375,198.026 65.609,209.964C69.466,218.504 82.873,229.891 81.863,239.717C80.578,251.287 62.120,243.665 47.060,234.023Z" fill="url(#lg18)"/>
        <path d="M199.588,188.843C196.833,193.619 185.630,201.149 178.192,199.128C170.570,197.200 167.080,186.456 168.641,178.375C170.019,169.192 178.192,168.733 188.476,173.324C199.404,178.283 202.802,182.507 199.588,188.843Z" fill="#000000"/>
        <path d="M192.058,186.180C190.313,189.486 182.967,194.720 177.824,193.343C172.682,191.966 170.111,184.528 170.937,178.926C171.672,172.590 177.181,172.222 184.160,175.345C191.690,178.834 194.078,181.773 192.058,186.180Z" fill="url(#lg19)"/>
        <path d="M97.107,66.344C100.780,62.946 109.687,52.570 126.584,63.405C129.706,65.426 132.277,65.609 138.246,68.180C150.276,73.139 144.582,85.077 131.726,89.117C126.216,90.862 121.258,97.566 111.340,96.923C102.800,96.464 100.596,90.862 95.362,87.832C86.087,82.598 84.710,75.527 89.760,71.762C94.811,67.997 96.739,66.619 97.107,66.344Z" stroke="#E68C3F" stroke-width="3.75" fill="url(#lg20)"/>
        <path d="M138.430,75.986C133.379,76.261 122.451,87.189 110.973,87.189C99.494,87.189 92.607,76.537 90.862,76.537" stroke="#E68C3F" stroke-width="2.5"/>
        <path d="M102.800,65.426C104.637,63.773 110.422,59.273 118.044,63.864C119.697,64.783 121.350,65.793 123.737,67.170C128.604,70.017 126.216,74.149 120.339,76.720C117.676,77.822 113.269,80.210 109.963,80.026C106.290,79.659 103.810,77.271 101.423,75.710C96.923,72.772 97.199,70.292 99.311,68.364C100.872,66.895 102.617,65.518 102.800,65.426Z" fill="url(#lg21)"/>
    </g>
</svg>
